<svg width="68" height="51" viewBox="0 0 68 51" fill="none" xmlns="http://www.w3.org/2000/svg">
<path d="M28.2616 34.7797C27.2618 34.7797 26.3637 34.1684 25.997 33.2382L24.5347 29.529C24.168 28.5989 23.2698 27.9876 22.27 27.9876H12.2777C11.2612 27.9876 10.3517 28.6192 9.99671 29.5716L8.64594 33.1956C8.29092 34.1481 7.38145 34.7797 6.36496 34.7797H2.65576C0.917567 34.7797 -0.260532 33.0105 0.409765 31.4067L12.8345 1.67926C13.2131 0.773451 14.0988 0.183716 15.0805 0.183716H19.9141C20.8991 0.183716 21.7869 0.777239 22.1635 1.68735L34.4627 31.4148C35.1258 33.0175 33.9478 34.7797 32.2134 34.7797H28.2616ZM19.6185 15.694C18.8479 13.5582 15.8311 13.5472 15.045 15.6775L14.182 18.0161C13.5955 19.6056 14.7716 21.2931 16.4657 21.2931H18.1726C19.8593 21.2931 21.0348 19.6193 20.4623 18.0327L19.6185 15.694Z" fill="#647B64"/>
<path d="M67.9874 36.3922C67.9874 38.4771 67.6303 40.3828 66.9163 42.1094C66.2347 43.8033 65.2447 45.2693 63.9465 46.5072C62.6482 47.7125 61.074 48.6572 59.224 49.3413C57.4064 50.0254 55.3778 50.3675 53.1383 50.3675C50.8663 50.3675 48.8215 50.0254 47.0039 49.3413C45.1863 48.6572 43.6446 47.7125 42.3788 46.5072C41.113 45.2693 40.1392 43.8033 39.4576 42.1094C38.776 40.3828 38.4353 38.4771 38.4353 36.3922V26.2196C38.4353 24.8752 37.3454 23.7853 36.001 23.7853H35.8549H28.2999C27.211 23.7853 26.2545 23.0621 25.9578 22.0143L24.8041 17.9406C24.3641 16.3868 25.5314 14.843 27.1463 14.843H44.2775C45.6219 14.843 46.7118 15.9329 46.7118 17.2773V35.7081C46.7118 36.6528 46.8254 37.5487 47.0526 38.3957C47.3122 39.2427 47.6855 40.0082 48.1724 40.6923C48.6917 41.3438 49.357 41.865 50.1685 42.256C51.0123 42.6469 52.0185 42.8423 53.187 42.8423C54.3554 42.8423 55.3453 42.6469 56.1568 42.256C57.0007 41.865 57.6823 41.3438 58.2016 40.6923C58.7209 40.0082 59.0941 39.2427 59.3213 38.3957C59.5485 37.5487 59.6621 36.6528 59.6621 35.7081V17.2773C59.6621 15.9329 60.752 14.843 62.0964 14.843H65.5531C66.8975 14.843 67.9874 15.9329 67.9874 17.2773V36.3922Z" fill="#647B64"/>
</svg>
