<svg width="343" height="589" viewBox="0 0 343 589" fill="none" xmlns="http://www.w3.org/2000/svg">
<path d="M68.9208 557.735C78.7884 555.754 89.7837 557.735 159.984 557.735C230.185 557.735 270.501 555.471 289.955 552.358C309.408 549.246 352.825 556.603 340.984 567.073C329.143 577.542 213.269 592.54 193.534 584.051C173.799 575.562 19.8648 593.671 32.2698 573.015C42.1938 556.49 60.8388 555.943 68.9208 557.735Z" fill="black" fill-opacity="0.13"/>
<g clip-path="url(#clip0_1_216)">
<path d="M129.068 145.852C127.648 146.658 126.196 146.76 125.812 146.084L121.608 138.642C121.223 137.966 122.064 136.766 123.479 135.958C124.899 135.153 126.358 135.048 126.738 135.722L130.942 143.164C131.326 143.84 130.483 145.044 129.068 145.852V145.852Z" fill="#2B242A"/>
<path d="M123.757 134.595C123.757 134.595 121.939 136.736 124.775 141.754C127.61 146.772 130.379 146.305 130.379 146.305C130.379 146.305 162.738 126.209 167.036 123.767C171.334 121.324 167.314 112.125 162.129 115.081C156.943 118.037 123.757 134.595 123.757 134.595Z" fill="#BC7BFB"/>
<g style="mix-blend-mode:soft-light">
<path d="M129.906 145.233C135.502 141.761 161.682 125.529 165.515 123.343L165.596 123.295C161.538 120.985 129.49 144.289 129.906 145.233Z" fill="white"/>
</g>
<g style="mix-blend-mode:multiply">
<path d="M130.284 144.309C129.664 142.204 129.543 140.018 130.5 137.98C131.71 135.386 133.83 133.375 135.983 131.55C141.08 127.238 146.477 123.529 153.06 121.99C157.908 120.861 163.241 120.716 167.623 123.338C170.94 120.423 167.05 112.278 162.129 115.081C156.949 118.027 123.76 134.59 123.76 134.59C123.76 134.59 121.942 136.731 124.777 141.749C127.613 146.767 130.381 146.3 130.381 146.3L130.917 145.965C130.666 145.429 130.454 144.876 130.284 144.309V144.309Z" fill="#BC7BFB"/>
</g>
<g style="mix-blend-mode:soft-light">
<g style="mix-blend-mode:soft-light">
<path d="M132.871 144.762L123.491 138.772C123.677 139.418 123.917 140.048 124.208 140.654L131.735 145.462C132.05 145.283 132.442 145.022 132.871 144.762Z" fill="white"/>
</g>
<g style="mix-blend-mode:soft-light">
<path d="M137.563 141.852L125.121 133.906L123.864 134.546L136.422 142.562C136.797 142.325 137.176 142.09 137.563 141.852Z" fill="white"/>
</g>
<g style="mix-blend-mode:soft-light">
<path d="M143.797 137.988L132.008 130.467C131.578 130.677 131.17 130.892 130.75 131.107L142.659 138.706L143.797 137.988Z" fill="white"/>
</g>
<g style="mix-blend-mode:soft-light">
<path d="M150.038 134.136L138.856 127.003L137.604 127.645L148.875 134.841L150.038 134.136Z" fill="white"/>
</g>
<g style="mix-blend-mode:soft-light">
<path d="M156.291 130.288L145.764 123.561L144.512 124.204L155.137 130.973L156.291 130.288Z" fill="white"/>
</g>
<g style="mix-blend-mode:soft-light">
<path d="M162.558 126.447L152.563 120.097C152.156 120.299 151.733 120.507 151.316 120.742L161.417 127.145L162.558 126.447Z" fill="white"/>
</g>
<g style="mix-blend-mode:soft-light">
<path d="M166.353 121.032L159.36 116.57L158.128 117.222L167.607 123.267L166.353 121.032Z" fill="white"/>
</g>
</g>
<path d="M172.763 119.95C177.554 117.221 216.512 117.714 227.118 118.07C225.049 115.242 202.983 107.962 202.983 107.962C202.983 107.962 207.246 112.248 200.79 112.556C191.936 112.985 181.629 113.174 179.571 113.216C176.301 113.27 175.983 111.561 177.388 109.404C178.24 108.091 183.745 99.2231 188.958 91.6126C191.574 87.7959 194.061 92.2436 194.061 92.2436C194.061 92.2436 202.388 61.2895 197.759 66.11C192.426 77.2773 173.419 108.962 168.221 111.905C163.023 114.848 167.97 122.671 172.763 119.95Z" fill="#352E35"/>
<path d="M222.367 46.3065C243.253 34.4162 267.863 38.3735 277.345 55.1519C286.329 71.0525 278.465 92.7785 259.838 105.099C260.618 106.185 261.507 107.243 262.174 108.393C282.987 94.6302 291.739 70.4035 281.719 52.6588C271.148 33.948 243.689 29.5213 220.384 42.7898C217.638 44.3484 215.018 46.1222 212.55 48.0946C213.343 49.1931 214.196 50.2469 215.105 51.2511C217.388 49.4082 219.817 47.7546 222.367 46.3065V46.3065Z" fill="#BC7BFB"/>
<path d="M280.99 71.7364L280.06 72.2607L277.933 68.5398L280.931 66.8115C280.909 66.5484 280.88 66.2879 280.851 66.0274L277.586 67.8889L275.472 64.168L279.199 62.0431L280.651 64.6036C280.521 63.8324 280.365 63.074 280.179 62.3133L279.85 61.7027L280.016 61.6081C279.952 61.368 279.885 61.133 279.82 60.8803L279.506 61.0593L277.389 57.3181L278.254 56.8373L277.94 56.1962L277.06 56.7075L274.945 52.9613L275.697 52.5318L275.273 51.9496L274.591 52.3382L272.689 49.0312C272.141 48.4826 271.57 47.9544 270.955 47.4417L271.424 48.3045L267.691 50.4269L265.607 46.6704L268.075 45.2666C267.852 45.1185 267.624 44.968 267.397 44.8301L265.258 46.0498L263.357 42.687C262.922 42.4719 262.465 42.3024 262.012 42.1228L258.443 44.143L256.326 40.4019L255.266 40.1803L251.611 42.2718L250.067 39.5397L249.217 39.4915L251.003 42.6018L247.27 44.7242L245.156 40.978L247.85 39.4463C247.363 39.439 246.879 39.4393 246.39 39.4497L244.776 40.3677L244.308 39.5428L243.524 39.603L244.156 40.7231L240.423 42.8455L238.935 40.2169L238.195 40.3553L239.8 43.206L236.09 45.3206L233.975 41.5744L234.656 41.1857C233.601 41.4779 232.544 41.8004 231.5 42.1481L229.275 43.4139L229.077 43.1138L228.398 43.4088L228.647 43.8478L224.917 45.9145L224.489 45.1602C224.273 45.2678 224.063 45.3744 223.86 45.4802L224.296 46.2572L220.574 48.372L220.148 47.6253L219.545 48.0084L219.948 48.7249L216.22 50.8497L216.007 50.5295C215.813 50.68 215.623 50.8254 215.434 50.9783L215.572 51.223L214.142 52.0362C213.267 52.7854 212.424 53.5588 211.613 54.3566L213.71 58.0751L209.978 60.1974L208.525 57.6243C208.357 57.8125 208.192 58.0084 208.034 58.2017L209.359 60.5478L205.642 62.6777L205.216 61.931C205.069 62.1545 204.916 62.3756 204.769 62.5992L205.016 63.0306L204.194 63.501C203.934 63.9151 203.685 64.3342 203.44 64.7557L205.37 63.6537L207.485 67.3999L203.732 69.5123L202.249 66.8861C202.122 67.145 202 67.3938 201.868 67.6628L203.116 69.8702L200.238 71.5067C200.045 72.0419 199.861 72.582 199.683 73.1247L201.601 76.5152L198.437 78.3128C198.388 78.6168 198.349 78.9005 198.301 79.2172L201.95 77.1358L204.07 80.8845L200.337 83.0069L198.279 79.3641C198.226 79.7668 198.178 80.1721 198.15 80.562L199.719 83.3445L197.982 84.3215C197.989 84.5897 197.995 84.8579 198.007 85.1287L200.058 83.9601L202.173 87.7064L198.563 89.7572C198.787 90.8585 199.074 91.9461 199.422 93.0146L200.288 94.5535L200.029 94.6967L200.323 95.3784L200.662 95.1866L202.777 98.9328L202.309 99.1937C202.434 99.4005 202.561 99.6022 202.696 99.8014L203.131 99.5559L204.965 102.81C205.598 103.539 206.268 104.235 206.972 104.894L206.221 103.57L209.953 101.447L212.063 105.191L209.217 106.812C209.42 106.976 209.628 107.129 209.84 107.284L212.442 105.827L214.557 109.573L214.049 109.864L214.823 110.247L214.911 110.196L214.985 110.327C215.349 110.507 215.713 110.687 216.095 110.832L215.531 109.841L219.264 107.718L221.379 111.464L220.001 112.247C220.325 112.344 220.643 112.438 220.966 112.522L221.733 112.088L222.151 112.824L223.09 113.036L222.326 111.699L225.684 109.789L227.798 113.536L227.544 113.681C227.966 113.719 228.387 113.757 228.813 113.785L232.498 111.683L233.711 113.835L234.512 113.79L233.111 111.356L236.844 109.233L238.747 112.604L237.005 113.591C237.663 113.531 238.27 113.434 238.91 113.334L239.094 113.229L239.134 113.3L239.883 113.172L239.715 112.874L243.447 110.752L244.262 112.19L244.985 111.998L244.083 110.404L247.816 108.281L249.133 110.617L249.807 110.358L248.436 107.926L252.169 105.804L253.751 108.611L254.39 108.296L252.785 105.458L256.517 103.336L258.132 106.204L258.743 105.831L257.135 102.986L260.868 100.863L262.297 103.394C262.493 103.251 262.684 103.105 262.875 102.96L261.489 100.508L265.221 98.3855L266.24 100.151C266.423 99.9832 266.599 99.8176 266.779 99.6546L265.855 98.0174L269.587 95.895L269.931 96.4751C270.104 96.2893 270.267 96.0986 270.435 95.9103L270.233 95.5521L271.208 94.9997C271.617 94.5013 272.02 94.0003 272.408 93.4919L269.879 94.929L267.976 91.5587L271.668 89.4163L273.268 92.2518C273.423 92.0383 273.576 91.8172 273.726 91.6012L272.289 89.0608L276.021 86.9385L276.294 87.4203C276.419 87.1665 276.543 86.9127 276.668 86.6588L276.622 86.5731L276.75 86.504C276.94 86.1182 277.127 85.7374 277.313 85.3567L276.268 85.95L274.153 82.2037L277.886 80.0814L278.823 81.7438C278.933 81.4445 279.037 81.1428 279.133 80.8435L278.507 79.7259L279.693 79.0509C279.782 78.7289 279.868 78.3994 279.95 78.08L278.16 79.0876L276.045 75.3414L279.791 73.2443L280.649 74.773C280.715 74.3829 280.768 73.9928 280.819 73.5952L280.414 72.8838L280.922 72.5923C280.948 72.3087 280.974 72.0251 280.99 71.7364ZM214.336 57.6968L212.221 53.9506L215.954 51.8282L218.068 55.5745L214.336 57.6968ZM218.694 55.2216L216.58 51.4753L220.312 49.353L222.427 53.0992L218.694 55.2216ZM223.053 52.7463L220.938 49.0001L224.67 46.8777L226.785 50.6239L223.053 52.7463ZM227.411 50.271L225.294 46.5298L229.026 44.4075L231.143 48.1486L227.411 50.271ZM231.767 47.8008L229.617 44.0624L233.349 41.94L235.464 45.6862L231.767 47.8008ZM208.123 67.0216L205.968 63.2933L209.701 61.1709L211.818 64.9121L208.123 67.0216ZM212.479 64.5514L210.327 60.818L214.059 58.6957L216.174 62.4419L212.479 64.5514ZM216.837 62.0761L214.685 58.3427L218.417 56.2204L220.532 59.9666L216.837 62.0761ZM221.196 59.6008L219.043 55.8675L222.776 53.7451L224.89 57.4913L221.196 59.6008ZM225.554 57.1255L223.402 53.3922L227.134 51.2698L229.249 55.016L225.554 57.1255ZM229.912 54.6502L227.758 50.922L231.49 48.7996L233.607 52.5407L229.912 54.6502ZM234.271 52.1749L232.154 48.4338L235.886 46.3114L238.003 50.0526L234.271 52.1749ZM238.627 49.7047L236.512 45.9585L240.245 43.8361L242.359 47.5824L238.627 49.7047ZM242.985 47.2295L240.87 43.4832L244.603 41.3609L246.718 45.1071L242.985 47.2295ZM202.222 76.1471L200.107 72.4009L203.465 70.4908L205.58 74.237L202.222 76.1471ZM206.201 73.8816L204.086 70.1353L207.819 68.013L209.933 71.7592L206.201 73.8816ZM210.559 71.4063L208.442 67.6651L212.174 65.5428L214.292 69.2839L210.559 71.4063ZM214.915 68.9361L212.8 65.1898L216.533 63.0675L218.647 66.8137L214.915 68.9361ZM219.273 66.4608L217.159 62.7146L220.891 60.5922L223.006 64.3384L219.273 66.4608ZM223.632 63.9855L221.517 60.2393L225.25 58.1169L227.364 61.8631L223.632 63.9855ZM227.99 61.5102L225.876 57.764L229.608 55.6416L231.723 59.3878L227.99 61.5102ZM232.348 59.0349L230.231 55.2938L233.964 53.1714L236.081 56.9125L232.348 59.0349ZM236.707 56.5596L234.59 52.8185L238.322 50.6961L240.414 54.3994L236.707 56.5596ZM241.063 54.0894L238.948 50.3432L242.681 48.2208L244.795 51.967L241.063 54.0894ZM245.421 51.6141L243.307 47.8679L247.039 45.7455L249.154 49.4918L245.421 51.6141ZM249.779 49.1389L247.624 45.3473L251.357 43.2249L253.469 46.9762L249.779 49.1389ZM254.138 46.6636L252.023 42.9174L255.756 40.795L257.87 44.5412L254.138 46.6636ZM204.691 80.5164L202.576 76.7702L205.944 74.8651L208.059 78.6113L204.691 80.5164ZM208.68 78.2559L206.565 74.5097L210.303 72.3898L212.417 76.136L208.68 78.2559ZM213.038 75.7806L210.921 72.0395L214.658 69.9196L216.775 73.6607L213.038 75.7806ZM217.399 73.3002L215.284 69.554L219.017 67.4443L221.131 71.1905L217.399 73.3002ZM221.757 70.825L219.643 67.0787L223.375 64.9563L225.49 68.7026L221.757 70.825ZM226.116 68.3497L224.001 64.6034L227.728 62.4786L229.848 66.2273L226.116 68.3497ZM230.474 65.8744L228.359 62.1282L232.087 60.0033L234.206 63.752L230.474 65.8744ZM234.832 63.3991L232.715 59.6579L236.448 57.5356L238.565 61.2767L234.832 63.3991ZM239.191 60.9238L237.074 57.1827L240.801 55.0578L242.923 58.8014L239.191 60.9238ZM243.547 58.4536L241.432 54.7074L245.159 52.5825L247.274 56.3287L243.547 58.4536ZM247.905 55.9783L245.79 52.2321L249.518 50.1072L251.632 53.8534L247.905 55.9783ZM252.263 53.503L250.091 49.7217L253.818 47.5968L255.93 51.3481L252.263 53.503ZM256.622 51.0277L254.507 47.2815L258.235 45.1566L260.349 48.9029L256.622 51.0277ZM260.98 48.5525L258.863 44.8113L262.59 42.6864L264.708 46.4276L260.98 48.5525ZM202.877 87.3859L200.762 83.6397L204.495 81.5173L206.513 85.2286L202.877 87.3859ZM207.235 84.9106L205.126 81.1669L208.484 79.2568L210.593 83.0005L207.235 84.9106ZM211.219 82.6476L209.008 78.8665L212.736 76.7416L214.85 80.4878L211.219 82.6476ZM215.577 80.1723L213.364 76.3963L217.092 74.2714L219.209 78.0125L215.577 80.1723ZM219.936 77.697L217.723 73.921L221.45 71.7961L223.567 75.5372L219.936 77.697ZM224.292 75.2268L222.081 71.4457L225.808 69.3208L227.923 73.067L224.292 75.2268ZM228.65 72.7515L226.439 68.9704L230.167 66.8455L232.286 70.5689L228.65 72.7515ZM233.008 70.2762L230.798 66.4951L234.525 64.3702L236.64 68.1165L233.008 70.2762ZM237.367 67.8009L235.154 64.0249L238.881 61.9L240.998 65.6412L237.367 67.8009ZM241.725 65.3256L239.522 61.5293L243.249 59.4044L245.341 63.1457L241.725 65.3256ZM246.081 62.8554L243.87 59.0743L247.598 56.9495L249.715 60.6906L246.081 62.8554ZM250.439 60.3801L248.325 56.6339L252.057 54.5115L254.172 58.2578L250.439 60.3801ZM254.798 57.9049L252.552 54.0936L256.284 51.9712L258.396 55.7225L254.798 57.9049ZM259.156 55.4296L257.042 51.6834L260.774 49.561L262.889 53.3072L259.156 55.4296ZM263.515 52.9543L261.397 49.2131L265.13 47.0908L267.247 50.8319L263.515 52.9543ZM200.916 94.2081L198.802 90.4619L202.534 88.3395L204.649 92.0858L200.916 94.2081ZM205.275 91.7328L203.16 87.9866L206.893 85.8642L209.007 89.6105L205.275 91.7328ZM209.633 89.2576L207.508 85.5063L210.866 83.5962L212.981 87.3424L209.633 89.2576ZM213.617 86.9945L211.502 83.2483L215.23 81.1234L217.344 84.8696L213.617 86.9945ZM217.975 84.5192L215.863 80.7806L219.591 78.6557L221.708 82.3969L217.975 84.5192ZM222.334 82.0439L220.217 78.3028L223.949 76.1804L226.066 79.9216L222.334 82.0439ZM226.69 79.5737L224.575 75.8275L228.308 73.7051L230.422 77.4514L226.69 79.5737ZM231.048 77.0984L228.913 73.3169L232.64 71.192L234.753 74.9433L231.048 77.0984ZM235.406 74.6232L233.292 70.8769L237.024 68.7546L239.139 72.5008L235.406 74.6232ZM239.765 72.1479L237.65 68.4017L241.38 66.2844L243.497 70.0255L239.765 72.1479ZM244.123 69.6726L241.963 65.8912L245.695 63.7688L247.808 67.5201L244.123 69.6726ZM248.479 67.2024L246.364 63.4562L250.097 61.3338L252.214 65.0749L248.479 67.2024ZM252.837 64.7271L250.723 60.9809L254.455 58.8585L256.57 62.6047L252.837 64.7271ZM257.196 62.2518L255.018 58.468L258.75 56.3456L260.863 60.0969L257.196 62.2518ZM261.554 59.7765L259.44 56.0303L263.172 53.9079L265.287 57.6541L261.554 59.7765ZM265.913 57.3012L263.795 53.5601L267.528 51.4377L269.645 55.1789L265.913 57.3012ZM270.271 54.8259L268.073 51.0448L271.805 48.9224L273.917 52.6737L270.271 54.8259ZM203.385 98.5774L201.27 94.8312L205.003 92.7088L207.118 96.4551L203.385 98.5774ZM207.743 96.1022L205.629 92.3559L209.361 90.2336L211.476 93.9798L207.743 96.1022ZM212.102 93.6269L209.987 89.8807L213.345 87.9705L215.46 91.7167L212.102 93.6269ZM216.081 91.3613L213.966 87.6151L217.699 85.4927L219.813 89.239L216.081 91.3613ZM220.439 88.886L218.322 85.1449L222.054 83.0225L224.172 86.7637L220.439 88.886ZM224.795 86.4158L222.68 82.6696L226.413 80.5472L228.53 84.2884L224.795 86.4158ZM229.153 83.9405L227.039 80.1943L230.771 78.072L232.886 81.8182L229.153 83.9405ZM233.512 81.4653L231.374 77.6888L235.107 75.5664L237.219 79.3177L233.512 81.4653ZM237.87 78.99L235.755 75.2438L239.488 73.1214L241.603 76.8676L237.87 78.99ZM242.228 76.5147L240.114 72.7685L243.844 70.6512L245.961 74.3923L242.228 76.5147ZM246.587 74.0394L244.429 70.2656L248.162 68.1432L250.274 71.8945L246.587 74.0394ZM250.943 71.5692L248.828 67.823L252.561 65.7006L254.675 69.4468L250.943 71.5692ZM255.301 69.0939L253.186 65.3477L256.919 63.2253L259.034 66.9715L255.301 69.0939ZM259.659 66.6186L257.484 62.8424L261.217 60.72L263.329 64.4713L259.659 66.6186ZM264.018 64.1433L261.903 60.3971L265.636 58.2747L267.75 62.021L264.018 64.1433ZM268.376 61.668L266.259 57.9269L269.994 55.7995L272.109 59.5457L268.376 61.668ZM272.735 59.1928L270.539 55.4192L274.272 53.2968L276.384 57.0481L272.735 59.1928ZM205.864 102.926L203.749 99.1802L207.482 97.0579L209.596 100.804L205.864 102.926ZM210.222 100.451L208.108 96.705L211.84 94.5826L213.955 98.3288L210.222 100.451ZM214.581 97.9759L212.466 94.2297L215.824 92.3195L217.939 96.0658L214.581 97.9759ZM218.559 95.7103L216.404 91.9694L220.137 89.847L222.252 93.5933L218.559 95.7103ZM222.918 93.2351L220.77 89.4789L224.503 87.3565L226.63 91.1153L222.918 93.2351ZM227.276 90.7598L225.119 87.0239L228.851 84.9015L230.968 88.6427L227.276 90.7598ZM231.632 88.2896L229.477 84.5486L233.21 82.4263L235.324 86.1725L231.632 88.2896ZM235.99 85.8143L233.84 82.0632L237.573 79.9408L239.685 83.6921L235.99 85.8143ZM240.349 83.339L238.194 79.5981L241.926 77.4757L244.041 81.2219L240.349 83.339ZM244.707 80.8637L242.552 77.1228L246.285 75.0004L248.399 78.7466L244.707 80.8637ZM249.065 78.3884L246.911 74.6475L250.643 72.5251L252.74 76.2689L249.065 78.3884ZM253.424 75.9131L251.266 72.1773L254.999 70.0549L257.116 73.796L253.424 75.9131ZM257.78 73.4429L255.625 69.702L259.342 67.5468L261.457 71.293L257.78 73.4429ZM262.138 70.9676L259.95 67.2168L263.683 65.0944L265.795 68.8457L262.138 70.9676ZM266.496 68.4923L264.382 64.7461L268.114 62.6237L270.229 66.37L266.496 68.4923ZM270.855 66.0171L268.738 62.2759L272.397 60.1236L274.512 63.8698L270.855 66.0171ZM275.213 63.5418L273.005 59.7936L276.738 57.6712L278.85 61.4225L275.213 63.5418ZM212.676 104.838L210.561 101.092L214.294 98.9697L216.403 102.713L212.676 104.838ZM217.034 102.363L214.92 98.6168L218.278 96.7066L220.392 100.453L217.034 102.363ZM221.013 100.097L218.898 96.3512L222.631 94.2289L224.746 97.9751L221.013 100.097ZM225.371 97.6222L223.252 93.8608L226.984 91.7384L229.101 95.4796L225.371 97.6222ZM229.73 95.1469L227.613 91.4057L231.345 89.2834L233.462 93.0245L229.73 95.1469ZM234.086 92.6767L231.971 88.9305L235.704 86.8081L237.818 90.5543L234.086 92.6767ZM238.444 90.2014L236.307 86.4376L240.039 84.3152L242.151 88.0665L238.444 90.2014ZM242.802 87.7261L240.688 83.9799L244.42 81.8575L246.535 85.6037L242.802 87.7261ZM247.161 85.2508L245.046 81.5046L248.753 79.3444L250.863 83.0881L247.161 85.2508ZM251.519 82.7755L249.362 79.0144L253.094 76.892L255.201 80.6408L251.519 82.7755ZM255.878 80.3002L253.76 76.5591L257.493 74.4367L259.605 78.1754L255.878 80.3002ZM260.233 77.83L258.119 74.0838L261.808 71.9212L263.918 75.6649L260.233 77.83ZM264.592 75.3547L262.417 71.5912L266.149 69.4688L268.256 73.2176L264.592 75.3547ZM268.95 72.8795L266.836 69.1332L270.568 67.0109L272.678 70.7546L268.95 72.8795ZM273.309 70.4042L271.191 66.663L274.926 64.5356L277.036 68.2793L273.309 70.4042ZM215.21 109.24L213.096 105.494L216.823 103.369L218.938 107.115L215.21 109.24ZM219.569 106.765L217.454 103.019L220.736 101.071L222.851 104.817L219.569 106.765ZM223.547 104.499L221.433 100.753L225.165 98.6307L227.28 102.377L223.547 104.499ZM227.906 102.024L225.718 98.2352L229.448 96.1179L231.56 99.8565L227.906 102.024ZM232.264 99.5487L230.147 95.8076L233.88 93.6852L235.992 97.4238L232.264 99.5487ZM236.623 97.0734L234.506 93.3323L238.233 91.2074L240.348 94.9536L236.623 97.0734ZM240.978 94.6032L238.773 90.812L242.526 88.6996L244.635 92.4433L240.978 94.6032ZM245.337 92.1279L243.222 88.3817L246.95 86.2568L249.064 90.0031L245.337 92.1279ZM249.695 89.6527L247.581 85.9064L251.214 83.7163L253.329 87.4625L249.695 89.6527ZM254.054 87.1774L251.828 83.3888L255.555 81.2639L257.667 85.0152L254.054 87.1774ZM258.412 84.7021L256.295 80.9609L260.022 78.8361L262.139 82.5772L258.412 84.7021ZM262.768 82.2319L260.658 78.4882L264.269 76.2931L266.384 80.0393L262.768 82.2319ZM267.126 79.7566L264.883 75.9656L268.61 73.8407L270.722 77.592L267.126 79.7566ZM271.485 77.2813L269.37 73.5351L273.097 71.4102L275.212 75.1564L271.485 77.2813ZM275.843 74.806L273.726 71.0649L277.461 68.9374L279.576 72.6836L275.843 74.806ZM267.454 91.9565L269.357 95.3268L265.624 97.4492L263.721 94.0789L267.454 91.9565ZM263.098 94.4267L265.001 97.7971L261.269 99.9194L259.221 96.5094L263.098 94.4267ZM258.638 96.852L260.542 100.222L256.809 102.345L254.906 98.9744L258.638 96.852ZM254.28 99.3273L256.183 102.698L252.451 104.82L250.547 101.45L254.28 99.3273ZM249.922 101.803L251.825 105.173L248.092 107.295L246.166 103.933L249.922 101.803ZM245.568 104.268L247.471 107.638L243.739 109.76L241.836 106.39L245.568 104.268ZM241.21 106.743L243.115 110.108L239.383 112.231L237.477 108.865L241.21 106.743ZM273.565 82.5564L275.68 86.3026L271.947 88.425L269.81 84.7118L273.565 82.5564ZM269.207 85.0317L271.321 88.7779L267.589 90.9003L265.474 87.1541L269.207 85.0317ZM264.848 87.507L266.966 91.2481L263.233 93.3832L261.116 89.642L264.848 87.507ZM260.49 89.9823L262.6 93.764L258.867 95.8863L256.755 92.1351L260.49 89.9823ZM256.134 92.4525L258.249 96.1987L254.516 98.3211L252.402 94.5749L256.134 92.4525ZM251.776 94.9278L253.89 98.674L250.158 100.796L248.043 97.0502L251.776 94.9278ZM247.417 97.4031L249.532 101.149L245.805 103.274L243.685 99.5254L247.417 97.4031ZM243.059 99.8784L245.174 103.625L241.441 105.747L239.327 102.001L243.059 99.8784ZM238.701 102.354L240.818 106.095L237.085 108.217L234.968 104.476L238.701 102.354ZM234.345 104.824L236.515 108.623L232.788 110.748L230.65 106.984L234.345 104.824ZM229.986 107.299L232.101 111.045L228.374 113.17L226.259 109.424L229.986 107.299ZM221.926 111.066L219.811 107.32L223.164 105.408L225.279 109.154L221.926 111.066ZM225.905 108.801L223.79 105.055L227.518 102.93L229.632 106.676L225.905 108.801ZM230.263 106.326L228.184 102.61L231.909 100.49L234.026 104.231L230.263 106.326ZM234.622 103.85L232.515 100.127L236.242 98.002L238.359 101.743L234.622 103.85ZM238.977 101.38L236.873 97.6516L240.626 95.5139L242.74 99.2601L238.977 101.38ZM243.336 98.9049L241.229 95.1814L244.956 93.0565L247.071 96.8027L243.336 98.9049ZM247.694 96.4296L245.575 92.6808L249.307 90.5585L251.422 94.3047L247.694 96.4296ZM252.053 93.9543L249.948 90.2257L253.681 88.0907L255.795 91.8369L252.053 93.9543ZM256.411 91.479L254.299 87.7657L258.027 85.6408L260.134 89.3896L256.411 91.479ZM260.769 89.0037L258.662 85.2802L262.395 83.1578L264.512 86.899L260.769 89.0037ZM265.125 86.5335L263.021 82.8049L266.736 80.6675L268.85 84.4137L265.125 86.5335ZM269.484 84.0582L267.369 80.35L271.102 78.2276L273.189 81.9664L269.484 84.0582ZM277.564 79.4555L273.837 81.5804L271.717 77.8317L275.45 75.7093L277.564 79.4555Z" fill="url(#paint0_linear_1_216)"/>
<path d="M264.4 106.882C263.32 106.03 262.308 105.095 261.373 104.085C259.87 105.154 258.315 106.148 256.713 107.06C235.798 118.931 211.214 114.986 201.734 98.2149C193.064 82.9048 199.991 62.2548 217.104 49.7157C216.178 48.7283 215.365 47.6405 214.68 46.4724C195.461 60.4436 187.659 83.5815 197.327 100.685C207.895 119.401 235.342 123.815 258.662 110.554C260.642 109.44 262.558 108.213 264.4 106.882V106.882Z" fill="#352E35"/>
<path d="M221.023 47.0986L218.387 43.9781C215.729 45.6265 213.205 47.4835 210.839 49.5318L213.465 52.6474C215.819 50.581 218.348 48.7244 221.023 47.0986V47.0986Z" fill="#D1D1D1"/>
<path d="M258.436 105.995L261.067 109.113C263.711 107.442 266.221 105.565 268.574 103.501L265.939 100.381C263.607 102.469 261.096 104.348 258.436 105.995V105.995Z" fill="#D1D1D1"/>
<g style="mix-blend-mode:soft-light">
<path d="M278.393 54.3259C287.715 70.8295 279.258 93.4295 259.523 105.561C260.079 105.281 260.627 104.984 261.167 104.671C281.609 93.0717 289.488 70.4193 279.936 53.4742C270.384 36.5291 245.584 33.5625 228.256 42.0204C223.045 44.579 218.134 47.711 213.613 51.3586C215.942 49.829 224.756 43.8478 231.439 41.3868C250.169 34.4546 270.039 39.5505 278.393 54.3259Z" fill="white"/>
</g>
<path d="M198.953 100.013C189.201 82.7476 199.141 65.2794 202.942 58.3832C192.329 70.7175 189.813 87.4163 197.435 100.877C205.781 115.655 224.587 120.616 240.677 116.971C231.272 118.099 207.689 115.482 198.953 100.013Z" fill="#2B242A"/>
<path d="M173.342 120.974C173.027 121.124 172.665 121.143 172.336 121.028C172.007 120.912 171.736 120.671 171.583 120.356L167.379 112.914C167.188 112.621 167.12 112.263 167.191 111.92C167.262 111.576 167.465 111.275 167.757 111.082C168.072 110.93 168.434 110.91 168.764 111.026C169.093 111.142 169.364 111.384 169.516 111.7L173.717 119.134C173.908 119.428 173.976 119.787 173.906 120.131C173.836 120.476 173.633 120.778 173.342 120.974Z" fill="#2B242A"/>
<path d="M167.357 112.098L163.202 114.463L168.109 123.147L172.263 120.782L167.357 112.098Z" fill="#161013"/>
<path d="M168.448 123.759C168.132 123.91 167.769 123.93 167.439 123.814C167.108 123.698 166.837 123.455 166.684 123.139L162.483 115.704C162.292 115.41 162.224 115.051 162.294 114.707C162.364 114.363 162.567 114.06 162.858 113.865V113.865C163.175 113.714 163.537 113.695 163.867 113.813C164.197 113.93 164.468 114.173 164.619 114.49L168.821 121.924C169.011 122.218 169.078 122.575 169.008 122.918C168.938 123.261 168.737 123.563 168.448 123.759V123.759Z" fill="#2B242A"/>
</g>
<path d="M125.175 241.095C123.37 235.436 124.423 191.576 125.175 170.353L135.456 174.032C134.61 182.521 144.628 209.403 144.628 211.706C150.622 207.868 160.765 204.97 167.182 203.743C171.223 208.177 179.023 217.382 177.896 218.741C176.486 220.439 127.43 248.169 125.175 241.095Z" fill="#FF7CA6"/>
<mask id="mask0_1_216" style="mask-type:alpha" maskUnits="userSpaceOnUse" x="124" y="170" width="55" height="73">
<path d="M125.176 241.095C123.371 235.436 124.424 191.576 125.176 170.353L135.457 174.032C134.611 182.521 144.629 209.403 144.629 211.706C150.623 207.867 160.766 204.97 167.184 203.743C171.225 208.177 179.025 217.382 177.897 218.741C176.487 220.438 127.431 248.169 125.176 241.095Z" fill="#FF7CA6"/>
</mask>
<g mask="url(#mask0_1_216)">
<path d="M121.793 245.057C119.989 239.397 121.041 195.538 121.793 174.315L132.074 177.994C131.228 186.483 141.246 213.364 141.246 215.667C147.24 211.829 157.384 208.932 163.801 207.705C167.842 212.138 175.642 221.344 174.514 222.702C173.104 224.4 124.048 252.131 121.793 245.057Z" fill="#FB94B5"/>
<path d="M120.102 250.716C118.297 245.057 119.35 201.197 120.102 179.974L129.819 176.013C128.973 184.502 139.555 219.024 139.555 221.327C145.549 217.489 155.692 214.591 162.109 213.364C166.15 217.798 173.95 227.003 172.823 228.362C171.413 230.059 122.357 257.79 120.102 250.716Z" fill="#FFAFC9"/>
<path d="M125.872 184.502C126.098 182.917 125.027 177.993 124.463 175.73L116.287 241.378C120.328 242.604 128.804 245.17 130.383 245.622C132.357 246.188 146.527 236.987 144.48 237.133C136.586 237.699 127.846 241.095 127 239.963C126.154 238.831 126.436 236.85 126.436 233.172C126.436 230.218 126.154 215.628 125.872 213.364C125.59 211.1 125.872 205.441 125.872 204.026C125.872 202.611 125.59 186.482 125.872 184.502Z" fill="#FEF2F7"/>
</g>
<path d="M183.032 484.994C176.462 476.868 189.516 380.649 196.864 333.555C210.829 328.298 225.729 311.285 231.433 303.435C231.532 304.755 233.373 309.71 239.947 318.967C246.521 328.225 250.633 337.51 251.868 340.996C252.89 374.269 235.661 433.484 226.919 458.932C253.97 461.287 284.562 490.74 296.725 505.52L290.598 526.482C286.736 523.855 272.629 516.021 247.105 505.701C215.2 492.8 191.245 495.151 183.032 484.994Z" fill="url(#paint1_linear_1_216)"/>
<mask id="mask1_1_216" style="mask-type:alpha" maskUnits="userSpaceOnUse" x="181" y="303" width="116" height="224">
<path d="M183.032 484.994C176.462 476.868 189.516 380.649 196.864 333.555C210.829 328.298 225.729 311.285 231.433 303.435C231.532 304.755 233.373 309.71 239.947 318.967C246.521 328.225 250.633 337.51 251.868 340.996C252.89 374.269 235.661 433.484 226.919 458.932C253.97 461.287 284.562 490.74 296.725 505.52L290.598 526.482C286.736 523.855 272.629 516.021 247.105 505.701C215.2 492.8 191.245 495.151 183.032 484.994Z" fill="#F89AB8"/>
</mask>
<g mask="url(#mask1_1_216)">
<path d="M176.286 490.678C169.716 482.552 182.77 386.333 190.118 339.239C204.083 333.982 216.947 314.712 222.651 306.863C222.75 308.183 226.627 315.394 233.201 324.651C239.775 333.909 232.019 335.597 233.253 339.082C234.246 371.408 230.949 429.788 222.627 456.553C221.894 457.79 221.781 459.12 221.599 459.92C221.554 460.118 221.595 460.329 221.734 460.476C222.202 460.972 223.313 462.074 224.057 462.207C251.985 466.633 296.258 508.178 308.009 522.457L283.852 532.166C279.99 529.539 265.884 521.705 240.36 511.385C208.455 498.484 184.499 500.835 176.286 490.678Z" fill="#FBC6D7"/>
<mask id="mask2_1_216" style="mask-type:alpha" maskUnits="userSpaceOnUse" x="174" y="306" width="135" height="227">
<path d="M176.286 490.678C169.716 482.552 182.77 386.333 190.118 339.239C204.083 333.982 216.947 314.712 222.651 306.863C222.75 308.183 226.627 315.394 233.201 324.651C239.775 333.909 232.019 335.597 233.253 339.082C234.246 371.408 230.949 429.788 222.627 456.553C221.894 457.79 221.781 459.12 221.599 459.92C221.554 460.118 221.595 460.329 221.734 460.476C222.202 460.972 223.313 462.074 224.057 462.207C251.985 466.633 296.258 508.178 308.009 522.457L283.852 532.166C279.99 529.539 265.884 521.705 240.36 511.385C208.455 498.484 184.499 500.835 176.286 490.678Z" fill="#FBC6D7"/>
</mask>
<g mask="url(#mask2_1_216)">
<path d="M215.452 438.752C221.216 395.437 210.423 356.143 215.763 351.597C239.022 416.406 308.51 520.927 303.764 518.228L293.614 518.265C287.626 499.328 229.466 476.902 218.712 465.622C214.582 461.29 214.44 444.887 215.452 438.752Z" fill="#FEB3CB"/>
</g>
<path d="M198.645 373.73C201.995 364.437 205.852 339.371 204.398 327.302C180.781 345.215 175.039 472.855 175.077 483.325C175.107 491.701 240.654 530.154 273.424 548.333L302.948 526.437C289.943 516.392 239.634 497.522 233.754 493.015C226.403 487.383 195.102 485.516 191.419 480.719C187.737 475.922 191.321 453.554 191.268 438.84C191.215 424.126 194.458 385.347 198.645 373.73Z" fill="#FEF2F7"/>
</g>
<path d="M199.184 347.207L166.48 313.535C125.6 350.886 118.551 383.144 110.657 397.859C102.763 412.573 105.019 408.611 98.5343 430.117C92.0499 451.622 66.6761 507.65 67.24 516.705C67.6911 523.949 78.7052 524.25 84.1558 523.496C132.197 451.962 136.971 427.665 132.93 424.175C165.634 403.348 190.444 363.997 199.184 347.207Z" fill="#FF7CA6"/>
<mask id="mask3_1_216" style="mask-type:alpha" maskUnits="userSpaceOnUse" x="67" y="313" width="133" height="211">
<path d="M199.184 347.207L166.48 313.535C125.6 350.886 118.551 383.144 110.657 397.859C102.763 412.573 105.019 408.611 98.5343 430.117C92.0499 451.622 66.6761 507.65 67.24 516.705C67.6911 523.949 78.7052 524.25 84.1558 523.496C132.197 451.962 136.971 427.665 132.93 424.175C165.634 403.348 190.444 363.997 199.184 347.207Z" fill="#FF7CA6"/>
</mask>
<g mask="url(#mask3_1_216)">
<path d="M193.545 347.207L160.841 313.535C119.961 350.886 112.913 383.144 105.019 397.859C97.1248 412.573 99.3802 408.611 92.8958 430.117C86.4114 451.622 61.0376 507.65 61.6015 516.705C62.0526 523.949 73.0667 524.25 78.5173 523.496C120.571 460.877 126.839 438.984 127.846 427.004C127.989 425.299 129.256 423.609 128.974 421.911C130.409 420.997 132.648 420.336 134.048 419.364C164.55 398.2 185.189 363.26 193.545 347.207Z" fill="#FEB3CB"/>
<path d="M181.977 330.796L157.458 309.573C116.578 346.925 109.53 379.183 101.636 393.897C93.7418 408.611 95.9972 404.65 89.5128 426.155C83.0284 447.661 57.6546 503.688 58.2185 512.743C58.6696 519.987 70.8022 521.704 76.2528 520.949C93.7325 493.785 119.791 438.135 120.798 426.155C120.941 424.45 122.208 422.76 121.926 421.062C123.361 420.148 129.265 416.374 130.665 415.403C161.167 394.238 173.621 346.848 181.977 330.796Z" fill="#FBC6D7"/>
<path d="M138.56 355.697C141.041 352.528 160.457 328.532 169.854 316.93C168.633 314.855 165.231 311.045 161.397 312.403C156.604 314.101 140.252 324.288 115.442 347.774C90.6319 371.26 58.2099 512.46 56.5183 516.139C55.165 519.082 63.4726 520.006 67.7955 520.101C75.7836 499.444 92.4363 456.546 95.1428 450.208C98.526 442.285 108.675 411.158 110.085 407.48C111.495 403.801 135.459 359.658 138.56 355.697Z" fill="#FEF2F7"/>
</g>
<path d="M207.068 394.463C181.581 360.959 155.286 340.888 145.325 335.04C146.678 330.739 158.858 319.099 164.778 313.817C187.558 352.301 219.191 326.834 232.16 309.29C263.285 326.72 254.714 367.487 246.538 385.691C237.422 389.464 219.191 396.5 219.191 394.463V375.787C215.356 381.22 209.511 390.501 207.068 394.463Z" fill="url(#paint2_linear_1_216)"/>
<mask id="mask4_1_216" style="mask-type:alpha" maskUnits="userSpaceOnUse" x="145" y="309" width="110" height="86">
<path d="M207.068 394.463C181.581 360.959 155.286 340.888 145.325 335.04C146.678 330.739 158.858 319.099 164.778 313.817C187.558 352.301 219.191 326.834 232.16 309.29C263.285 326.72 254.714 367.487 246.538 385.691C237.422 389.464 219.191 396.5 219.191 394.463V375.787C215.356 381.22 209.511 390.501 207.068 394.463Z" fill="url(#paint3_linear_1_216)"/>
</mask>
<g mask="url(#mask4_1_216)">
<path d="M143.916 327.117C153.632 334.293 159.791 337.266 176.056 353.999C194.381 369.279 206.349 383.286 210.451 387.389C217.245 394.183 215.075 392.15 215.526 393.897C233.006 389.37 247.046 384.106 255.842 377.768" stroke="white" stroke-opacity="0.5" stroke-width="0.563862"/>
<path d="M225.111 315.242C231.689 314.676 254.432 338.728 235.824 393.906" stroke="white" stroke-opacity="0.49" stroke-width="0.563862"/>
<path d="M216.653 344.378C215.525 349.754 208.571 352.584 204.812 353.715V349.471C208.195 351.056 212.988 348.339 216.653 344.378Z" fill="url(#paint4_linear_1_216)"/>
<path d="M177.464 339.001C184.982 342.585 203.007 347.603 214.961 339.001C212.424 346.17 201.372 356.206 177.464 339.001Z" fill="url(#paint5_linear_1_216)"/>
<path d="M230.186 308.552C234.401 310.908 241.562 323.088 244.283 342.68C245.421 350.878 248.991 358.513 246.82 367.864C245.039 375.534 240.651 387.368 235.543 395.14L267.965 381.841C265.897 359.203 259.62 312.853 251.049 308.552C242.478 304.251 233.569 306.76 230.186 308.552Z" fill="#647B64" fill-opacity="0.5"/>
<path d="M150.964 333.908C154.629 337.87 172.39 354.282 172.109 356.828L142.788 334.757L145.607 325.136L164.496 310.988C170.135 313.723 180.623 320.043 177.465 323.438C174.308 326.834 169.759 323.155 167.88 320.892C162.241 323.438 161.113 323.438 159.14 325.136C157.166 330.512 150.964 333.342 150.964 333.908Z" fill="url(#paint6_linear_1_216)"/>
</g>
<path d="M222.371 255.809C224.176 276.409 231.581 301.744 235.058 311.837C200.381 360.79 168.804 330.229 165.421 319.194C162.715 310.365 162.978 275.711 163.448 259.488C155.836 255.809 140.329 236.284 152.17 226.664C161.643 218.967 179.249 204.309 188.459 196.103H204.247C222.855 209.969 220.116 230.059 222.371 255.809Z" fill="url(#paint7_linear_1_216)"/>
<mask id="mask5_1_216" style="mask-type:alpha" maskUnits="userSpaceOnUse" x="147" y="196" width="89" height="143">
<path d="M222.372 255.809C224.177 276.409 231.582 301.744 235.059 311.837C200.382 360.79 168.806 330.23 165.422 319.194C162.716 310.365 162.979 275.711 163.449 259.488C155.837 255.809 140.331 236.285 152.172 226.664C161.645 218.967 179.251 204.309 188.46 196.103H204.248C222.856 209.969 220.117 230.059 222.372 255.809Z" fill="url(#paint8_linear_1_216)"/>
</mask>
<g mask="url(#mask5_1_216)">
<path d="M208.759 218.173C208.759 231.456 198.925 238.266 186.418 238.266C173.91 238.266 161.959 227.498 161.959 214.215C161.959 200.933 171.793 194.123 184.301 194.123C196.808 194.123 208.759 204.89 208.759 218.173Z" fill="#647B64"/>
<path d="M206.65 217.43C206.65 229.52 197.526 235.719 185.923 235.719C174.32 235.719 161.959 225.069 161.959 212.978C161.959 200.888 171.082 194.689 182.686 194.689C194.289 194.689 206.65 205.339 206.65 217.43Z" fill="#647B64"/>
<path d="M168.162 277.518C169.739 271.069 160.359 261.043 158.012 258.356L153.501 317.913L160.259 326.551C169.552 323.96 162.619 310.345 168.162 298.537C171.541 291.339 166.191 285.58 168.162 277.518Z" fill="url(#paint9_linear_1_216)"/>
<path d="M173.777 287.502C175.75 297.028 168.42 309.573 191.82 324.287C177.16 324.287 166.785 317.836 173.777 287.502Z" fill="url(#paint10_linear_1_216)"/>
<path d="M175.649 291.821C177.079 294.783 175.751 299.503 184.543 302.398C179.801 303.608 175.909 302.348 175.649 291.821Z" fill="url(#paint11_linear_1_216)"/>
<path d="M212.269 233.66C212.269 225.171 212.099 216.208 206.471 208.837C211.065 210.525 217.625 221.776 212.269 233.66Z" fill="url(#paint12_linear_1_216)"/>
<path d="M162.523 259.488C169.998 258.331 173.8 260.337 186.02 252.98C183.995 255.232 165.342 272.787 162.523 259.488Z" fill="#647B64"/>
<path d="M258.38 289.645C253.176 300.103 244.805 289.645 235.19 289.645C217.656 267.477 220.807 240.365 217.656 220.885C208.324 187.349 180.043 200.69 167.034 192.164C175.33 185.438 207.928 178.681 217.656 187.775C229.817 199.143 258.38 277.424 258.38 289.645Z" fill="#647B64"/>
<path d="M146.171 236.551L157.448 211.367L164.215 214.969L162.241 220.156C160.478 224.017 156.549 230.127 151.528 233.473C148.99 233.473 150.813 244.057 150.118 244.474C148.921 245.193 147.066 236.154 146.171 236.551Z" fill="url(#paint13_linear_1_216)"/>
</g>
<path d="M326.307 514.185L320.375 511.094C311.326 581.586 287.641 580.823 278.02 570.955C302.092 600.862 320.767 541.37 321.047 540.803C327.555 531.725 330.277 520.396 330.536 514.17L326.307 514.185Z" fill="#CAF4F3"/>
<path d="M296.374 500.994C296.163 504.121 295.185 508.701 291.483 515.174C289.27 512.55 286.179 509.093 284.559 508.111C281.747 510.102 278.405 521.433 277.563 522.568C279.374 524.373 283.03 527.076 284.632 528.202C278.804 538.41 277.607 560.958 277.737 570.955C301.505 594.638 317.954 543.172 323.207 514.479C320.252 508.151 307.101 504.728 300.896 503.808L296.374 500.994Z" fill="#F6FEFD"/>
<path d="M280.934 561.414C283.19 563.678 288.546 565.942 295.595 561.414" stroke="#14D1A4" stroke-width="1.69158" stroke-linecap="round" stroke-linejoin="round"/>
<path d="M282.062 553.491C284.318 555.754 291.366 557.452 296.723 553.491" stroke="#14D1A4" stroke-width="1.69158" stroke-linecap="round" stroke-linejoin="round"/>
<path d="M284.318 546.134C286.053 547.603 289.957 549.245 295.595 546.134" stroke="#14D1A4" stroke-width="1.69158" stroke-linecap="round" stroke-linejoin="round"/>
<path d="M278.011 568.691C284.61 574.326 300.257 576.986 310.057 542.541" stroke="#CEF4F4" stroke-width="1.12772" stroke-linecap="round" stroke-linejoin="round"/>
<path d="M305.971 526.727C297.281 528.536 293.212 529.082 287.653 529.058C287.66 530.869 288.605 532.261 289.076 532.731C295.623 534.292 303.067 529.379 305.971 526.727Z" stroke="#14D1A4" stroke-width="0.563862" stroke-linecap="round"/>
<path d="M287.658 530.755C291.05 533.29 297.613 539.548 296.728 544.305C294.467 542.804 289.488 537.993 287.658 530.755Z" stroke="#14D1A4" stroke-width="0.563862"/>
<path d="M268.793 537.397C276.752 533.656 278.527 532.561 285.961 529.139C286.368 531.097 285.889 531.075 285.804 531.737C280.644 540.194 272.706 537.703 268.793 537.397Z" stroke="#14D1A4" stroke-width="0.563862" stroke-linecap="round"/>
<path d="M286.296 530.289C283.859 533.757 279.562 541.755 281.879 545.999C283.562 543.867 286.802 537.739 286.296 530.289Z" stroke="#14D1A4" stroke-width="0.563862"/>
<path d="M288.219 529.621C288.221 530.248 287.717 530.756 287.095 530.758C286.473 530.761 285.965 530.256 285.963 529.63C285.961 529.003 286.465 528.495 287.087 528.493C287.709 528.49 288.216 528.995 288.219 529.621Z" fill="#14D1A4" stroke="#14D1A4" stroke-width="0.563862"/>
<path d="M44.1427 577.817C24.0462 582.257 24.8731 567.902 27.7987 560.17C32.298 582.92 66.3159 568.445 82.7624 558.364C82.8157 559.348 82.8824 561.479 82.7235 562.139C82.5248 562.965 69.2633 572.266 44.1427 577.817Z" fill="#C5F4F2"/>
<path d="M80.5635 548.224C83.5142 540.789 84.8431 528.396 84.7092 522.93C82.3049 523.278 70.9733 519.795 66.0375 518.209C64.5804 524.26 58.444 535.29 55.6647 538.4C39.4157 545.171 30.317 555.734 27.7988 560.17C25.1538 589.222 80.4833 564.216 82.4314 559.74C83.9898 556.158 81.8355 550.57 80.5635 548.224Z" fill="#F1FEFC"/>
<path d="M37.9091 549.528C39.5067 549.811 43.4913 551.509 46.6489 556.036" stroke="#14D1A4" stroke-width="1.69158" stroke-linecap="round" stroke-linejoin="round"/>
<path d="M45.2386 543.869C46.8362 544.152 50.8208 545.85 53.9784 550.377" stroke="#14D1A4" stroke-width="1.69158" stroke-linecap="round" stroke-linejoin="round"/>
<path d="M53.6969 538.776C55.2945 539.058 57.3056 539.341 60.4633 543.869" stroke="#14D1A4" stroke-width="1.69158" stroke-linecap="round" stroke-linejoin="round"/>
<path d="M68.3557 508.582L66.0376 518.209C70.36 525.313 79.0453 526.022 83.1879 525.28C83.6045 522.587 85.5935 518.101 86.5359 516.195C82.6063 510.351 72.7784 508.685 68.3557 508.582Z" fill="#F7FFFD"/>
<path d="M30.1239 560.151C30.9162 565.292 36.7559 574.045 53.7758 567.926" stroke="#AAFEE7" stroke-width="1.69158"/>
<path d="M74.3246 554.862C64.6463 558.919 58.9643 566.856 56.1188 570.241C58.7423 569.946 65.485 567.079 68.5284 565.683L74.3246 554.862Z" fill="#AAFEE7" stroke="#DAFFF5" stroke-width="0.563862"/>
<path d="M66.5148 520.01C70.3943 520.832 78.5433 523.309 80.1039 526.645C82.0546 530.814 68.6 526.594 66.5148 520.01Z" fill="white" stroke="#14D1A4" stroke-width="0.563862"/>
<path d="M66.387 520.362C68.1195 524.355 71.3115 533.056 70.2199 535.921C67.7305 533.859 63.4788 527.86 66.387 520.362Z" fill="white" stroke="#14D1A4" stroke-width="0.563862"/>
<path d="M65.5933 519.721C61.9382 518.179 53.834 515.557 50.6585 517.407C46.6892 519.72 60.1439 523.94 65.5933 519.721Z" stroke="#14D1A4" stroke-width="0.563862"/>
<path d="M65.4983 520.084C61.809 522.375 54.2482 527.703 53.5198 530.682C56.7361 530.41 63.6346 527.909 65.4983 520.084Z" stroke="#14D1A4" stroke-width="0.563862"/>
<path d="M67.0158 520.873C66.8203 521.42 66.5093 521.852 66.1788 522.113C65.8446 522.378 65.5289 522.443 65.2873 522.356C65.0458 522.269 64.8431 522.017 64.7527 521.6C64.6633 521.187 64.6973 520.655 64.8928 520.108C65.0882 519.561 65.3992 519.129 65.7298 518.867C66.064 518.603 66.3797 518.538 66.6213 518.625C66.8628 518.712 67.0655 518.964 67.1559 519.381C67.2453 519.794 67.2113 520.326 67.0158 520.873Z" fill="#14D1A4" stroke="#14D1A4" stroke-width="0.563862"/>
<path d="M189.427 166.507C202.484 182.142 194.867 198.055 189.427 201.109C173.973 222.851 163.115 201.624 159.451 190.326C157.453 180.248 160.65 174.507 166.779 168.644C172.907 162.781 183.099 161.01 189.427 166.507Z" fill="#FF7CA6"/>
<mask id="mask6_1_216" style="mask-type:alpha" maskUnits="userSpaceOnUse" x="159" y="162" width="39" height="49">
<path d="M189.991 166.327C203.047 182.032 195.431 198.016 189.991 201.084C174.537 222.923 163.367 201.511 159.703 190.161C157.705 180.039 161.214 174.363 167.342 168.474C173.471 162.584 183.663 160.805 189.991 166.327Z" fill="#FF7CA6"/>
</mask>
<g mask="url(#mask6_1_216)">
<path d="M187.05 168.09C201.147 182.521 194.952 195.997 189.542 199.045C174.173 220.75 161.103 198.831 157.46 187.552C155.472 177.492 156.691 186.298 165.59 183.032C183.949 176.296 186.205 166.392 187.05 168.09Z" fill="#FEB3CB"/>
<path d="M187.05 170.071C201.992 190.444 192.208 198.426 186.768 201.48C171.313 223.222 159.137 196.367 155.473 185.068C158.856 185.634 161.673 190.575 170.698 185.917C180.565 180.823 180.565 182.238 187.05 170.071Z" fill="#FBC6D7"/>
<path d="M185.989 178.818C185.26 176.395 185.509 171.557 187.319 172.558C188.369 172.558 189.619 177.934 189.619 177.934C191.556 183.183 192.807 192.779 190.717 194.406C187.539 190.684 185.856 188.523 178.19 188.181C174.851 183.653 187.319 183.237 185.989 178.818Z" fill="#FEF2F7" fill-opacity="0.3"/>
</g>
<path d="M168.162 139.422C167.26 140.554 163.651 141.78 161.959 142.252C167.034 149.043 178.931 163.418 185.923 166.587C192.915 169.756 194.851 181.112 194.945 186.394C195.396 187.3 195.697 193.563 195.791 196.581C198.723 196.355 199.582 191.771 199.646 189.507C200.236 193.009 199.823 197.827 199.456 200.26C203.516 200.486 209.021 195.072 211.266 192.337C211.802 198.45 211.036 201.78 210.451 202.807C212.707 201.675 218.345 197.996 222.856 192.337C228.495 185.263 221.447 178.188 218.909 177.057C216.372 175.925 215.808 152.155 214.962 146.213C214.286 141.459 207.538 135.366 204.249 132.914C177.465 120.463 169.289 138.007 168.162 139.422Z" fill="url(#paint14_linear_1_216)"/>
<path d="M198.617 176.027C197.039 174.442 193.073 178.102 191.569 180.554C190.638 181.969 190.159 186.497 195.798 183.95C201.437 181.403 200.591 178.008 198.617 176.027Z" fill="#FBC6D7" stroke="url(#paint15_linear_1_216)" stroke-width="0.563862"/>
<path fill-rule="evenodd" clip-rule="evenodd" d="M195.548 178.493C194.595 179.331 193.725 180.562 193.217 181.443C193.139 181.578 192.966 181.624 192.832 181.546C192.697 181.468 192.651 181.294 192.729 181.159C193.254 180.248 194.161 178.961 195.177 178.067C195.684 177.622 196.237 177.257 196.801 177.1C197.378 176.939 197.967 176.996 198.499 177.396C198.623 177.49 198.649 177.667 198.555 177.792C198.462 177.917 198.285 177.943 198.161 177.849C197.79 177.57 197.388 177.523 196.952 177.645C196.504 177.77 196.025 178.074 195.548 178.493ZM197.305 178.252C197.426 178.153 197.603 178.171 197.702 178.292C197.926 178.567 198.148 178.909 198.289 179.266C198.429 179.618 198.504 180.022 198.378 180.394C198.246 180.786 197.917 181.073 197.398 181.228C196.888 181.381 196.171 181.414 195.195 181.299C195.041 181.281 194.93 181.14 194.948 180.985C194.967 180.83 195.107 180.719 195.261 180.737C196.203 180.848 196.833 180.806 197.237 180.686C197.632 180.568 197.786 180.385 197.844 180.213C197.909 180.022 197.882 179.769 197.765 179.475C197.651 179.186 197.464 178.894 197.266 178.651C197.167 178.53 197.185 178.351 197.305 178.252Z" fill="#FC719A"/>
<path d="M168.444 177.994C151.303 188.86 139.405 174.316 135.458 165.261C145.044 155.64 143.36 157.139 151.528 152.527C156.039 149.98 158.294 150.829 159.986 140.925C163.595 141.605 181.413 144.038 187.615 156.772L189.589 157.055C213.271 161.129 216.278 150.169 214.681 144.321C225.732 162.884 200.96 164.978 187.615 163.563C186.487 166.109 185.585 167.128 168.444 177.994Z" fill="url(#paint16_linear_1_216)"/>
<mask id="mask7_1_216" style="mask-type:alpha" maskUnits="userSpaceOnUse" x="135" y="140" width="83" height="42">
<path d="M168.444 177.994C151.303 188.86 139.405 174.316 135.458 165.261C145.044 155.64 143.36 157.139 151.528 152.527C156.039 149.98 158.294 150.829 159.986 140.925C163.595 141.605 181.413 144.038 187.615 156.772L189.589 157.055C213.271 161.129 216.278 150.169 214.681 144.321C225.732 162.884 200.96 164.978 187.615 163.563C186.487 166.109 185.585 167.128 168.444 177.994Z" fill="url(#paint17_linear_1_216)"/>
</mask>
<g mask="url(#mask7_1_216)">
<path d="M150.964 188.181L179.721 174.315C174.365 169.222 163.369 174.305 156.039 167.231C148.709 160.156 156.603 155.063 149.273 152.799L126.437 163.845L150.964 188.181Z" fill="url(#paint18_linear_1_216)" fill-opacity="0.3"/>
<path d="M147.506 157.499C137.53 161.272 138.727 163.159 135.74 166.701L133.767 163.872L143.071 153.402L158.295 137.247C164.215 140.642 158.432 149.37 156.885 150.546C153.785 152.904 152.105 152.582 149.459 156.016C148.952 156.674 148.283 157.205 147.506 157.499Z" fill="#C1DBF7"/>
</g>
<path d="M159.705 151.395C159.987 154.979 167.317 161.104 184.796 163.651" stroke="#BAD4F6" stroke-width="0.563862" stroke-linecap="round" stroke-linejoin="round"/>
<path d="M172.885 150.695C168.424 149.619 166.638 148.643 164.427 146.106C163.624 148.322 165.283 152.821 166.365 152.898C166.593 152.914 170.785 150.579 172.885 150.695Z" fill="#B8D2F6"/>
<path d="M167.314 221.57C156.662 210.21 130.122 184.128 118.799 174.489C118.446 174.189 118.233 173.78 118.297 173.322C119.112 167.504 131.366 146.174 146.452 131.304C148.989 125.079 150.962 125.361 153.782 117.438C156.037 111.1 162.24 110.27 165.623 111.496C166.751 111.905 165.922 113.643 163.931 114.043C161.112 114.609 159.138 117.438 159.138 119.136C159.138 120.303 158.011 127.625 166.187 124.23C168.442 121.4 169.852 126.21 160.83 132.719C153.782 135.831 133.765 165.792 136.02 167.241C141.957 169.01 150.482 182.784 169.57 188.18C189.587 193.839 208.194 205.724 201.428 221.57C194.662 237.416 180.847 236.002 167.314 221.57Z" fill="#FF7CA6"/>
<mask id="mask8_1_216" style="mask-type:alpha" maskUnits="userSpaceOnUse" x="118" y="111" width="85" height="122">
<path d="M167.316 221.57C156.663 210.21 130.123 184.128 118.8 174.489C118.448 174.189 118.234 173.78 118.298 173.322C119.113 167.504 131.367 146.174 146.453 131.304C148.99 125.079 150.964 125.362 153.783 117.439C156.039 111.1 162.241 110.27 165.624 111.496C166.752 111.905 165.923 113.643 163.933 114.043C161.113 114.609 159.14 117.439 159.14 119.136C159.14 120.303 158.012 127.625 166.188 124.23C168.444 121.4 169.853 126.211 160.831 132.719C153.783 135.831 133.766 165.792 136.021 167.241C141.958 169.01 150.484 182.784 169.571 188.18C189.588 193.84 208.196 205.724 201.429 221.57C194.663 237.416 180.848 236.002 167.316 221.57Z" fill="#FF7CA6"/>
</mask>
<g mask="url(#mask8_1_216)">
<path d="M163.654 223.749C153.001 212.388 126.461 186.306 115.138 176.667C114.786 176.367 114.572 175.959 114.637 175.5C115.451 169.682 127.706 148.353 142.791 133.482C145.328 127.257 147.302 127.54 150.121 119.617C152.377 113.278 162.24 109.138 165.623 110.365C166.751 110.773 167.049 113.927 165.059 114.326C162.24 114.892 160.548 117.083 159.984 119.064C159.665 120.186 157.447 126.79 165.623 123.394C167.878 120.565 169.006 127.06 157.729 133.482C150.681 136.595 130.104 167.97 132.36 169.419C138.296 171.188 146.822 184.962 165.909 190.358C185.926 196.018 204.534 207.902 197.768 223.749C191.001 239.595 177.187 238.18 163.654 223.749Z" fill="#FEB3CB"/>
<mask id="mask9_1_216" style="mask-type:alpha" maskUnits="userSpaceOnUse" x="114" y="110" width="86" height="126">
<path d="M163.654 223.749C153.001 212.388 126.461 186.306 115.138 176.667C114.786 176.367 114.572 175.959 114.637 175.5C115.451 169.682 127.706 148.353 142.791 133.482C145.328 127.257 147.302 127.54 150.121 119.617C152.377 113.278 162.24 109.138 165.623 110.365C166.751 110.773 167.049 113.927 165.059 114.326C162.24 114.892 160.548 117.083 159.984 119.064C159.665 120.186 157.447 126.79 165.623 123.394C167.878 120.565 169.006 127.06 157.729 133.482C150.681 136.595 130.104 167.97 132.36 169.419C138.296 171.188 146.822 184.962 165.909 190.358C185.926 196.018 204.534 207.902 197.768 223.749C191.001 239.595 177.187 238.18 163.654 223.749Z" fill="#FEB3CB"/>
</mask>
<g mask="url(#mask9_1_216)">
<path d="M160.834 223.964C150.181 212.604 123.641 186.521 112.319 176.883C111.966 176.583 111.753 176.174 111.817 175.715C112.632 169.897 124.886 148.568 139.971 133.697C142.509 127.472 144.482 127.755 147.302 119.832C149.557 113.493 165.904 108.572 169.288 109.799C170.415 110.207 171.543 116.658 166.186 115.741C163.352 115.256 163.654 117.851 163.09 119.832C162.77 120.954 159.42 125.079 167.596 121.683C169.851 118.854 170.133 124.316 158.856 130.738C151.808 133.851 127.284 168.185 129.54 169.634C135.476 171.403 144.002 185.177 163.09 190.574C183.107 196.233 201.714 208.118 194.948 223.964C188.182 239.81 174.367 238.395 160.834 223.964Z" fill="#FBC6D7"/>
<path d="M164.213 112.345C170.698 117.439 170.484 108.384 166.187 107.535C161.394 109.421 147.398 115.628 145.82 116.307C143.846 117.156 115.439 175.447 113.184 177.145C111.38 178.503 125.683 187.331 130.946 195.255L189.587 239.68C190.997 233.738 187.163 231.135 181.975 228.645C175.491 225.532 171.262 223.834 168.442 218.741C165.623 213.647 152.654 200.914 146.734 195.255C140.813 189.595 121.642 176.013 121.642 171.768C121.642 168.817 130.664 154.507 140.813 139.227C153.782 127.625 157.709 107.236 164.213 112.345Z" fill="#FEF2F7"/>
</g>
</g>
<path d="M273.885 275.334C282.563 295.878 278.148 296.171 253.304 306.743C228.46 317.316 201.649 334.2 192.971 313.656C184.292 293.112 169.808 244.553 194.653 233.981C219.497 223.408 265.206 254.79 273.885 275.334Z" fill="url(#paint19_linear_1_216)"/>
<ellipse cx="50.9001" cy="44.216" rx="50.9001" ry="44.216" transform="matrix(0.920148 -0.39157 0.389143 0.921177 170.417 273.6)" fill="url(#paint20_radial_1_216)" fill-opacity="0.5"/>
<ellipse cx="47.3888" cy="40.2766" rx="47.3888" ry="40.2766" transform="matrix(0.920148 -0.39157 0.389143 0.921177 174.927 276.509)" fill="#F0DCC5"/>
<ellipse cx="44.8521" cy="37.048" rx="44.8521" ry="37.048" transform="matrix(0.920148 -0.39157 0.389143 0.921177 178.31 277.353)" fill="url(#paint21_radial_1_216)"/>
<mask id="mask10_1_216" style="mask-type:alpha" maskUnits="userSpaceOnUse" x="190" y="255" width="88" height="78">
<ellipse cx="44.8521" cy="37.048" rx="44.8521" ry="37.048" transform="matrix(0.920148 -0.39157 0.389143 0.921177 178.31 277.353)" fill="#D16035"/>
</mask>
<g mask="url(#mask10_1_216)">
<path d="M250.391 232.451C258.115 250.736 246.495 273.453 223.986 283.031C201.477 292.61 177.131 285.2 169.406 266.914C161.682 248.629 173.302 225.913 195.811 216.334C218.32 206.755 242.666 214.166 250.391 232.451Z" stroke="url(#paint22_radial_1_216)" stroke-width="1.69158"/>
<path d="M296.392 336.017C304.168 354.423 295.319 375.817 276.59 383.788C257.86 391.758 236.386 383.267 228.611 364.861C220.836 346.456 229.684 325.061 248.414 317.091C267.144 309.12 288.617 317.611 296.392 336.017Z" stroke="url(#paint23_linear_1_216)" stroke-width="1.69158"/>
</g>
<ellipse cx="91.9914" cy="92.1603" rx="91.9914" ry="92.1603" transform="matrix(-0.865229 -0.501376 0.498625 -0.866818 159.187 308.796)" fill="url(#paint24_linear_1_216)"/>
<defs>
<linearGradient id="paint0_linear_1_216" x1="265.427" y1="23.2104" x2="218.349" y2="119.566" gradientUnits="userSpaceOnUse">
<stop stop-color="#FFFF97" stop-opacity="0.945806"/>
<stop offset="0.456015" stop-color="white"/>
<stop offset="1" stop-color="white" stop-opacity="0.4"/>
</linearGradient>
<linearGradient id="paint1_linear_1_216" x1="261.527" y1="376.615" x2="238.957" y2="526.645" gradientUnits="userSpaceOnUse">
<stop stop-color="#FF78A3"/>
<stop offset="1" stop-color="#FF8EB2"/>
</linearGradient>
<linearGradient id="paint2_linear_1_216" x1="199.747" y1="309.29" x2="175.61" y2="394.983" gradientUnits="userSpaceOnUse">
<stop stop-color="#647B64"/>
<stop offset="1" stop-color="#647B64"/>
</linearGradient>
<linearGradient id="paint3_linear_1_216" x1="199.747" y1="309.29" x2="175.61" y2="394.983" gradientUnits="userSpaceOnUse">
<stop stop-color="#647B64"/>
<stop offset="1" stop-color="#647B64"/>
</linearGradient>
<linearGradient id="paint4_linear_1_216" x1="218.909" y1="350.886" x2="206.22" y2="349.2" gradientUnits="userSpaceOnUse">
<stop stop-color="#C1C5FF"/>
<stop offset="1" stop-color="#C1C5FF" stop-opacity="0"/>
</linearGradient>
<linearGradient id="paint5_linear_1_216" x1="206.503" y1="337.303" x2="201.679" y2="350.308" gradientUnits="userSpaceOnUse">
<stop stop-color="#C1C5FF"/>
<stop offset="1" stop-color="#C7CAFF" stop-opacity="0"/>
</linearGradient>
<linearGradient id="paint6_linear_1_216" x1="163.087" y1="331.078" x2="159.112" y2="313.258" gradientUnits="userSpaceOnUse">
<stop stop-color="#DBF3F8"/>
<stop offset="1" stop-color="#99B5F3"/>
</linearGradient>
<linearGradient id="paint7_linear_1_216" x1="191.641" y1="192.425" x2="195.333" y2="346.641" gradientUnits="userSpaceOnUse">
<stop stop-color="#647B64"/>
<stop offset="1" stop-color="#647B64"/>
</linearGradient>
<linearGradient id="paint8_linear_1_216" x1="191.642" y1="192.425" x2="195.334" y2="346.641" gradientUnits="userSpaceOnUse">
<stop stop-color="#647B64"/>
<stop offset="1" stop-color="#647B64"/>
</linearGradient>
<linearGradient id="paint9_linear_1_216" x1="156.317" y1="273.301" x2="169.242" y2="327.864" gradientUnits="userSpaceOnUse">
<stop stop-color="#99B5F3"/>
<stop offset="1" stop-color="#DBF3F8"/>
</linearGradient>
<linearGradient id="paint10_linear_1_216" x1="185.618" y1="331.079" x2="166.351" y2="303.131" gradientUnits="userSpaceOnUse">
<stop stop-color="#C1C5FF"/>
<stop offset="1" stop-color="#C1C5FF" stop-opacity="0"/>
</linearGradient>
<linearGradient id="paint11_linear_1_216" x1="186.768" y1="316.364" x2="174.264" y2="297.738" gradientUnits="userSpaceOnUse">
<stop stop-color="#C1C5FF"/>
<stop offset="1" stop-color="#C1C5FF" stop-opacity="0"/>
</linearGradient>
<linearGradient id="paint12_linear_1_216" x1="212.706" y1="205.159" x2="217.298" y2="230.276" gradientUnits="userSpaceOnUse">
<stop stop-color="#C1C5FF"/>
<stop offset="1" stop-color="#C1C5FF" stop-opacity="0"/>
</linearGradient>
<linearGradient id="paint13_linear_1_216" x1="165.342" y1="245.04" x2="158.528" y2="209.113" gradientUnits="userSpaceOnUse">
<stop stop-color="#647B64"/>
<stop offset="1" stop-color="#DBF3F8"/>
</linearGradient>
<linearGradient id="paint14_linear_1_216" x1="193.254" y1="156.4" x2="193.475" y2="202.807" gradientUnits="userSpaceOnUse">
<stop stop-color="#050753"/>
<stop offset="1" stop-color="#008294"/>
</linearGradient>
<linearGradient id="paint15_linear_1_216" x1="198.611" y1="178.189" x2="192.117" y2="181.283" gradientUnits="userSpaceOnUse">
<stop stop-color="#FC719A"/>
<stop offset="1" stop-color="#FC719A" stop-opacity="0"/>
</linearGradient>
<linearGradient id="paint16_linear_1_216" x1="138.841" y1="179.409" x2="218.963" y2="154.111" gradientUnits="userSpaceOnUse">
<stop stop-color="#647B64"/>
<stop offset="0.511301" stop-color="#647B64"/>
<stop offset="0.857583" stop-color="#5EC0DF"/>
<stop offset="1" stop-color="white"/>
</linearGradient>
<linearGradient id="paint17_linear_1_216" x1="180.567" y1="161.582" x2="223.989" y2="156.525" gradientUnits="userSpaceOnUse">
<stop stop-color="#02C3CD"/>
<stop offset="1" stop-color="white"/>
</linearGradient>
<linearGradient id="paint18_linear_1_216" x1="151.81" y1="179.409" x2="154.082" y2="158.188" gradientUnits="userSpaceOnUse">
<stop stop-color="white"/>
<stop offset="1" stop-color="#003BD5" stop-opacity="0"/>
<stop offset="1" stop-color="white"/>
</linearGradient>
<linearGradient id="paint19_linear_1_216" x1="194.38" y1="248.735" x2="241.902" y2="330.923" gradientUnits="userSpaceOnUse">
<stop stop-color="#F5FF7C" stop-opacity="0"/>
<stop offset="0.544444" stop-color="#F0DCC5"/>
<stop offset="1" stop-color="#AD8B64"/>
</linearGradient>
<radialGradient id="paint20_radial_1_216" cx="0" cy="0" r="1" gradientUnits="userSpaceOnUse" gradientTransform="translate(51.5105 98.3982) rotate(-84.1574) scale(65.2681 75.1736)">
<stop stop-color="#FFEC3E"/>
<stop offset="1" stop-color="#F0DCC5"/>
</radialGradient>
<radialGradient id="paint21_radial_1_216" cx="0" cy="0" r="1" gradientUnits="userSpaceOnUse" gradientTransform="translate(42.4469 5.40792) rotate(91.0331) scale(86.2845 104.46)">
<stop stop-color="#F0DCC5"/>
<stop offset="0.546875" stop-color="#F0DCC5"/>
<stop offset="1" stop-color="#CF9B5E"/>
</radialGradient>
<radialGradient id="paint22_radial_1_216" cx="0" cy="0" r="1" gradientUnits="userSpaceOnUse" gradientTransform="translate(220.035 298.821) rotate(-100.422) scale(56.1042 67.863)">
<stop stop-color="white"/>
<stop offset="1" stop-color="white" stop-opacity="0"/>
</radialGradient>
<linearGradient id="paint23_linear_1_216" x1="240.616" y1="301.65" x2="255.077" y2="329.054" gradientUnits="userSpaceOnUse">
<stop stop-color="white"/>
<stop offset="1" stop-color="white" stop-opacity="0"/>
</linearGradient>
<linearGradient id="paint24_linear_1_216" x1="277.069" y1="-524.436" x2="40.8321" y2="204.913" gradientUnits="userSpaceOnUse">
<stop stop-color="#EF8031" stop-opacity="0"/>
<stop offset="0.692955" stop-color="#EF8031" stop-opacity="0.15"/>
<stop offset="1" stop-color="#EF8031" stop-opacity="0"/>
</linearGradient>
<clipPath id="clip0_1_216">
<rect width="121.047" height="158.563" fill="white" transform="matrix(0.896354 0.443338 -0.440729 0.89764 188.988 0.573242)"/>
</clipPath>
</defs>
</svg>
